<svg width="313" height="153" viewBox="0 0 313 153" fill="none" xmlns="http://www.w3.org/2000/svg">
<path fill-rule="evenodd" clip-rule="evenodd" d="M156.662 90.6444C145.567 105.715 129.341 102.71 114.687 90.2284C100.125 77.9318 88.7067 58.0075 84.5 41.1806C124.626 91.6152 139.234 67.022 149.866 39.0078C158.234 16.9571 163.781 -6.20308 185.97 1.51699C175.107 1.97927 171.64 15.4778 169.374 32.4897C166.601 52.7838 165.399 78.7176 156.616 90.6444H156.662Z" fill="#683107"/>
<path fill-rule="evenodd" clip-rule="evenodd" d="M180.515 5.67748C186.155 0.59241 194.892 3.96705 203.629 10.8088C212.413 17.743 221.889 28.699 228.5 39.1003C198.544 9.14458 193.459 20.3317 189.669 40.4409C185 65.2653 181.717 108.581 146.076 103.403C164.706 96.4229 169.883 70.2117 172.379 47.2826C174.506 28.098 174.922 10.8088 180.469 5.72371L180.515 5.67748Z" fill="#683107"/>
<path d="M26.264 128.473C30.8 128.473 35.048 130.201 35.444 133.729H32.384C31.484 130.093 19.568 130.381 19.532 133.765C19.532 137.797 36.236 132.829 35.84 139.921C35.624 143.701 31.016 145.177 26.12 145.177C21.008 145.177 16.688 143.089 16.22 139.921H19.388C21.872 144.133 32.672 143.161 32.852 139.921C33.104 135.853 16.184 141.037 16.616 133.369C16.76 130.705 20.18 128.473 26.264 128.473ZM47.907 131.209C44.163 131.209 41.211 133.405 41.211 136.933C41.211 140.425 44.163 142.621 47.907 142.621C51.651 142.621 54.639 140.425 54.639 136.933C54.639 133.405 51.651 131.209 47.907 131.209ZM47.907 128.617C53.847 128.617 57.483 132.181 57.483 136.933C57.483 141.649 53.595 145.213 47.907 145.213C42.255 145.213 38.367 141.865 38.367 136.933C38.367 131.965 42.003 128.617 47.907 128.617ZM60.0219 128.617H62.6499V142.477H75.5019V144.997H60.0219V128.617ZM87.4885 131.245L83.7085 138.949H91.2685L87.4885 131.245ZM85.8685 128.617H89.1085L96.9565 144.997H94.1485L92.3845 141.361H82.5925L80.8285 144.997H78.0205L85.8685 128.617ZM102.128 131.245V137.149H107.672C111.884 137.149 112.064 134.953 112.064 134.197C112.064 133.477 111.92 131.245 107.672 131.245H102.128ZM99.4995 128.617H108.176C112.82 128.617 114.836 131.029 114.836 134.197C114.836 136.285 113.972 138.013 112.064 138.949C114.116 140.893 115.052 144.997 115.052 144.997H112.28C112.28 144.997 111.308 140.317 108.608 139.741C108.464 139.777 108.32 139.777 108.176 139.777H102.128V144.997H99.4995V128.617ZM126.298 131.245L122.518 138.949H130.078L126.298 131.245ZM124.678 128.617H127.918L135.766 144.997H132.958L131.194 141.361H121.402L119.638 144.997H116.83L124.678 128.617ZM153.522 131.245V142.369H158.31C162.054 142.369 164.754 140.497 164.754 136.789C164.754 133.081 162.054 131.245 158.31 131.245H153.522ZM150.894 128.617H158.85C163.71 128.617 167.562 131.317 167.562 136.825C167.562 142.297 163.71 144.997 158.85 144.997H150.894V128.617ZM168.646 128.617H171.634L176.638 135.565L181.678 128.617H184.666L177.97 137.761V144.997H175.342V137.761L168.646 128.617ZM187.207 128.617H189.835L201.391 140.821V128.617H204.019V144.997H201.391L189.835 132.937V144.997H187.207V128.617ZM216.01 131.245L212.23 138.949H219.79L216.01 131.245ZM214.39 128.617H217.63L225.478 144.997H222.67L220.906 141.361H211.114L209.35 144.997H206.542L214.39 128.617ZM228.021 128.617H231.333L237.453 141.217L243.573 128.617H247.101V144.997H244.437V133.009L238.893 144.025H235.833L230.649 133.153V144.997H228.021V128.617ZM252.62 144.997H249.992V128.617H252.62V144.997ZM264.699 128.509C270.099 128.509 273.591 131.497 274.203 135.565H271.287C270.675 132.793 267.975 131.101 264.699 131.101C260.955 131.101 258.003 133.297 258.003 136.825C258.003 140.317 260.955 142.513 264.699 142.513C267.975 142.513 270.675 140.821 271.287 138.049H274.203C273.555 142.153 269.883 145.105 264.699 145.105C259.047 145.105 255.159 141.757 255.159 136.825C255.159 131.893 258.795 128.509 264.699 128.509ZM286.787 128.473C291.323 128.473 295.571 130.201 295.967 133.729H292.907C292.007 130.093 280.091 130.381 280.055 133.765C280.055 137.797 296.759 132.829 296.363 139.921C296.147 143.701 291.539 145.177 286.643 145.177C281.531 145.177 277.211 143.089 276.743 139.921H279.911C282.395 144.133 293.195 143.161 293.375 139.921C293.627 135.853 276.707 141.037 277.139 133.369C277.283 130.705 280.703 128.473 286.787 128.473Z" fill="#683107"/>
</svg>
